P3
4 5
15
 0  0  0    0  0  0    0  0  0   15  0 15    0  0  0
 0  0  0    0 15  7    0  0  0    0  0  0    0 15  7
 0  0  0    0  0  0    0 15  7    0  0  0    0  0  0
15  0 15    0  0  0    0  0  0    0  0  0    0  0  0

